/* XPM */
static char *_2x32_png[] = {
/* columns rows colors chars-per-pixel */
"32 32 137 2 ",
"   c #E39E00",
".  c #E5A201",
"X  c #E8A100",
"o  c #EBAB03",
"O  c #E5A60B",
"+  c #E7A80E",
"@  c #ECAF0B",
"#  c #F0AE00",
"$  c #EEB105",
"%  c #EEB20C",
"&  c #F2B100",
"*  c #E4A512",
"=  c #E7A914",
"-  c #E8AC17",
";  c #E0A71E",
":  c #E7A91A",
">  c #E8AD1C",
",  c #EEB313",
"<  c #EEB51E",
"1  c #F0B616",
"2  c #DEAA2C",
"3  c #E7AE23",
"4  c #E8AE23",
"5  c #E9AF2B",
"6  c #EDB623",
"7  c #EDB827",
"8  c #E7B02F",
"9  c #EBB32D",
"0  c #EFB92C",
"q  c #F1BA27",
"w  c #F1BB2E",
"e  c #EAB434",
"r  c #EFB934",
"t  c #EAB53B",
"y  c #E7B838",
"u  c #EEB93B",
"i  c #F0BA30",
"p  c #F0BD3C",
"a  c #D2A747",
"s  c #DAAB42",
"d  c #D7A651",
"f  c #DBAA55",
"g  c #D2AB58",
"h  c #DDAE59",
"j  c #DAB056",
"k  c #DCB05C",
"l  c #E9B740",
"z  c #ECBA44",
"x  c #EDBC4B",
"c  c #F1BE42",
"v  c #F0BE48",
"b  c #E0B751",
"n  c #EBBB54",
"m  c #E1B45F",
"M  c #E1BA5C",
"N  c #ECBE5D",
"B  c #F0BF53",
"V  c #CEAC62",
"C  c #D4B67F",
"Z  c #E3B661",
"A  c #E4BA65",
"S  c #EBBD63",
"D  c #E7BC69",
"F  c #EBBE6A",
"G  c #F1C14C",
"H  c #EBC15B",
"J  c #F0C153",
"K  c #F0C35C",
"L  c #EBC362",
"P  c #ECC16D",
"I  c #F1C566",
"U  c #F3C965",
"Y  c #F1C568",
"T  c #F4CA6C",
"R  c #EEC373",
"E  c #EEC976",
"W  c #EEC77A",
"Q  c #ECCA7C",
"!  c #F0C576",
"~  c #F3CB74",
"^  c #F1C77D",
"/  c #F2CB7B",
"(  c #F6D077",
")  c #F6D17D",
"_  c #CEBCA6",
"`  c #E7CB87",
"'  c #EECE87",
"]  c #F4CD82",
"[  c #EED18D",
"{  c #F6D283",
"}  c #F8D585",
"|  c #F7D38A",
" . c #F9D68B",
".. c #FBD98D",
"X. c #EED291",
"o. c #EFD59A",
"O. c #FBDB92",
"+. c #D2C0AD",
"@. c #D3C6B9",
"#. c #D5CCBB",
"$. c #E0CFA6",
"%. c #E7D2A2",
"&. c #F0D9A6",
"*. c #F0DAAA",
"=. c #E5D8BF",
"-. c #F1DEB6",
";. c #F1DEB8",
":. c #F2E0BC",
">. c #BABEDD",
",. c #B5B9E2",
"<. c #AFBAF2",
"1. c #B2BBF1",
"2. c #BEC2E4",
"3. c #B7C2F7",
"4. c #BDC6F7",
"5. c #CAC0C3",
"6. c #D2CCC4",
"7. c #C8C4D5",
"8. c #E3D8C3",
"9. c #E3DAC9",
"0. c #E1DCDA",
"q. c #E2DBD4",
"w. c #CDD3EE",
"e. c #D3D3E0",
"r. c #DFDFEF",
"t. c #C3C6F3",
"y. c #C3C8F7",
"u. c #CBCFF7",
"i. c #C2CAFD",
"p. c #CACFF9",
"a. c #CAD2FF",
"s. c #DAE3FF",
"d. c #DEECFF",
"f. c #E2E4F7",
"g. c #E0E6FC",
"h. c #E1E8FF",
"j. c None",
/* pixels */
"j.j.j.j.j.j.j.j.j.j.j.j.) ) { } } ) { ) j.j.j.j.j.j.j.j.j.j.j.j.",
"j.j.j.j.j.j.j.j.j.) )  ...{ ~ ~ ~ ~ / | { / ) j.j.j.j.j.j.j.j.j.",
"j.j.j.j.j.j.j.j.} } ) K e : O O O + : e N ! / { j.j.j.j.j.j.j.j.",
"j.j.j.j.j.j.) { } J = . . o $ % & % % o o < B ^ ! / j.j.j.j.j.j.",
"j.j.j.j.j.) } ~ >   . % 1 % % 1 1 % % % % % $ 7 F ! ^ j.j.j.j.j.",
"j.j.j.j.)  .U O . % % % % % $ T U $ % % % % % $ 1 Y ^ ! j.j.j.j.",
"j.j.j.) } U . . % % % % % % % u 9 % % % % % % % $ O S F Y j.j.j.",
"j.j.j.} ~ = . % % % % % % % $ , y & , % % % % % X   : ! ! j.j.j.",
"j.j.) ..e   % % % % % % % $ % 8.a.b & , % % % . . O   t ] F j.j.",
"j.j.{ U . @ % % % % % % $ , 8.h.u.i.k & % % . . . . . O Y ! j.j.",
"j.) } e . % % % % % % % < 9.h.f.w.y.i.A & . . . . . .   t ] F j.",
"j.} / O o % $ % % % % & $.s.r.f.a.y.t.4.2 . . . . . . . * ) ] j.",
"j.} K . % $ q U , % % % < 6.w.e.7.,.1.V X . . O I -       U ^ j.",
"j.} z . G w U ! $ % % % , , 6.w.,.<.g . * X . O ^ K 9 l   B ] j.",
") { e o w p c v q % % $ ` H $ #.3.a = _ ;   X 4 z t t 4   c ] F ",
")  .5 - G r u J K % , $ 7 s.%.y s j i.C   O X N z t 5 x O r  .! ",
"/ { 8 @ c J r p < $ % % o Q d.q.+.4.7.O . . . > 9 8 n t   z } P ",
"~ { e , p G i G w % % % % , 0.h.a.i.h . . . . 8 z e z e X v { F ",
"j.{ n o p G G q c % % % % . A d.p.5.. . . . . t 3 x z e . U ] j.",
"j.{ P @ 7 q K G u , % % . . . 9.a.s . . . . * e z H > : O } ] j.",
"j.~ W 9 $ 0 w T G & % . . .   k @.. . . . . . x U 4 5   r  .R j.",
"j.P W n % $ < < 1 % .     . . O *   . .   . . O : *   . Y { D j.",
"j.j.E Q 7 $ % $ % . . L R 8 . z R t   x Q l . .   . . r O.~ j.j.",
"j.j.D ~ S 1 % % . . + ;.Q &.  *.L ;.* o.L ;.3   O . = / { A j.j.",
"j.j.j.P R n % . . . O *.X.'   o.X.X.. X.o.[ O .   . U ..P j.j.j.",
"j.j.j.h D Q n . . . O ;.H ;.. *.N     *.H . . . O U ..R f j.j.j.",
"j.j.j.j.h P R M =   O L Q 8   n = . . z :     > T  ./ h j.j.j.j.",
"j.j.j.j.j.f A R ~ z O       .   . . .     + v }  .T f j.j.j.j.j.",
"j.j.j.j.j.j.f Z R W ~ K e - o . . . - e J ) ..} A f j.j.j.j.j.j.",
"j.j.j.j.j.j.j.j.h Z D Q  .) ~ ( ~ ( } O.../ P k j.j.j.j.j.j.j.j.",
"j.j.j.j.j.j.j.j.j.f j m Z D R Q / E P P Z h d j.j.j.j.j.j.j.j.j.",
"j.j.j.j.j.j.j.j.j.j.j.j.d f f f f f d d j.j.j.j.j.j.j.j.j.j.j.j."
};
