/* XPM */
static char *bitcoin16[] = {
/* columns rows colors chars-per-pixel */
"16 16 193 2 ",
"   c #E29900",
".  c #E19A00",
"X  c #E29E00",
"o  c #E39E00",
"O  c #E39F00",
"+  c #E49E00",
"@  c #E59F00",
"#  c #E69F00",
"$  c #E39E05",
"%  c #E3A303",
"&  c #E4A101",
"*  c #E4A200",
"=  c #E4A201",
"-  c #E6A400",
";  c #E7A400",
":  c #E7A600",
">  c #E5A405",
",  c #E5A406",
"<  c #E7A707",
"1  c #E9A300",
"2  c #E7A806",
"3  c #EAA900",
"4  c #EBAB00",
"5  c #E6A60B",
"6  c #E4A30C",
"7  c #E4A50D",
"8  c #E6A70F",
"9  c #E7A809",
"0  c #EAAD0D",
"q  c #EBAE0E",
"w  c #EEB000",
"e  c #EFB000",
"r  c #EFB001",
"t  c #EEB002",
"y  c #EEB102",
"u  c #EEB003",
"i  c #EEB104",
"p  c #EFB105",
"a  c #EEB107",
"s  c #EFB207",
"d  c #EEB108",
"f  c #EEB209",
"g  c #EFB309",
"h  c #EEB20A",
"j  c #EEB30C",
"k  c #EEB30F",
"l  c #EFB40E",
"z  c #F0B102",
"x  c #F0B204",
"c  c #F0B206",
"v  c #F0B50F",
"b  c #E7A914",
"n  c #E6A917",
"m  c #E8AA11",
"M  c #E2A81E",
"N  c #E6AB1C",
"B  c #E8AA18",
"V  c #E8AC1C",
"C  c #E8AD1D",
"Z  c #EAAF1F",
"A  c #EEB210",
"S  c #EEB311",
"D  c #EFB511",
"F  c #ECB317",
"G  c #EEB415",
"H  c #EEB416",
"J  c #EAB01E",
"K  c #EFB61F",
"L  c #E8AD20",
"P  c #EAAF20",
"I  c #E8AD22",
"U  c #EDB321",
"Y  c #EEB520",
"T  c #EDB626",
"R  c #EFB826",
"E  c #EBB329",
"W  c #EAB22A",
"Q  c #E9B02D",
"!  c #EBB42F",
"~  c #ECB52E",
"^  c #EEB82D",
"/  c #F0B821",
"(  c #F0B823",
")  c #F1BA27",
"_  c #F0B92C",
"`  c #E0A931",
"'  c #EBB330",
"]  c #EBB430",
"[  c #E9B433",
"{  c #ECB531",
"}  c #EAB236",
"|  c #EBB434",
" . c #EDB635",
".. c #EBB43C",
"X. c #E9B73F",
"o. c #EDB939",
"O. c #EEB938",
"+. c #EDB93A",
"@. c #EDB93F",
"#. c #EEBB3F",
"$. c #EBBD3D",
"%. c #F0BB37",
"&. c #F1BD39",
"*. c #F0BC3D",
"=. c #F0BC3F",
"-. c #DFB15D",
";. c #EEBA40",
":. c #EFBB41",
">. c #E9B947",
",. c #EEBC47",
"<. c #ECBA4B",
"1. c #EDBB4C",
"2. c #EEBD4E",
"3. c #EFBF4F",
"4. c #F0BF4E",
"5. c #E5BD50",
"6. c #EABE53",
"7. c #EEBD51",
"8. c #ECBB58",
"9. c #CDAC6C",
"0. c #D7B163",
"q. c #DEB263",
"w. c #D6B574",
"e. c #E1B461",
"r. c #E1B565",
"t. c #E2B665",
"y. c #E6BB6A",
"u. c #E4BA6E",
"i. c #E8BE6A",
"p. c #E7BD70",
"a. c #E7BE71",
"s. c #E7BF72",
"d. c #F0C04F",
"f. c #F1C24F",
"g. c #EEC15A",
"h. c #EFC05B",
"j. c #F1C252",
"k. c #F1C45B",
"l. c #F1C55D",
"z. c #EBC262",
"x. c #ECC060",
"c. c #EBC365",
"v. c #EBC465",
"b. c #EBC16B",
"n. c #EBC768",
"m. c #EDC568",
"M. c #ECC66E",
"N. c #F2C766",
"B. c #F2CA6F",
"V. c #E9C073",
"C. c #ECC477",
"Z. c #EDCA78",
"A. c #EFC87B",
"S. c #F2C771",
"D. c #F0C573",
"F. c #F3CA75",
"G. c #F5CD75",
"H. c #F4CC76",
"J. c #F3CD7B",
"K. c #F4CE7B",
"L. c #F6CF7A",
"P. c #F3CE7D",
"I. c #F4CD7E",
"U. c #CDB381",
"Y. c #DFC899",
"T. c #E0C683",
"R. c #F1C781",
"E. c #F2CB83",
"W. c #F3CE80",
"Q. c #F4CD80",
"!. c #F4CE80",
"~. c #F3CC84",
"^. c #F2CD84",
"/. c #F4CF87",
"(. c #F5D080",
"). c #F6D181",
"_. c #F6D28B",
"`. c #F7D589",
"'. c #F9D78D",
"]. c #E2CF9F",
"[. c #EFD291",
"{. c #F9D890",
"}. c #E4D1A5",
"|. c #B8BFEA",
" X c #C7C3CE",
".X c #CFC9CD",
"XX c #D0C9CF",
"oX c #D0CFD6",
"OX c #CACAEA",
"+X c #C5CDFF",
"@X c #E2DFE3",
"#X c #DEE7FF",
"$X c None",
/* pixels */
"$X$X$X$X$X{.(.G.F.I._.$X$X$X$X$X",
"$X$X$X'.G.@.J q q U :.S.E.$X$X$X",
"$X$X'.k.2 4 r ) R r r S h.R.$X$X",
"$X$Xl.- g D a Y T z D h - 8.$X$X",
"$XL.m a l h x }..XH c 2 & b S.$X",
"$X3.3 v k r ].#X+X X9 & > o 7.$X",
"`.{ H f.H h 5.oX|.9.& 5 1.7 | ~.",
"(.E %.4.R r v.T.U.w.% V <.Q E Q.",
"P.~ *.*.K r X.@XOX0.# b ..} ! W.",
"~.O._ j.R g & Y..X# % I 3.I :.~.",
"$Xh.h &./ - o L ` o o B ' & N.$X",
"$XC.^ r - >.v.' m.;.Z.7 .  .W.$X",
"$X$Xb.J . c.[.z.z.6.M.o P K.$X$X",
"$X$Xr.b.! V N 7 $ 6 > O.I.y.$X$X",
"$X$X$X-.a.z.,.O.:.d.B.A.e.$X$X$X",
"$X$X$X$X$Xq.u.a.V.a.r.$X$X$X$X$X"
};
