/* XPM */
static char *_4x64_png[] = {
/* columns rows colors chars-per-pixel */
"64 64 176 2 ",
"   c #E08F00",
".  c #E19100",
"X  c #E39E00",
"o  c #EB9F00",
"O  c #E5A201",
"+  c #E8A300",
"@  c #EBAC04",
"#  c #E5A50B",
"$  c #E7A90E",
"%  c #EBAD09",
"&  c #F1AF00",
"*  c #EFB104",
"=  c #EFB30C",
"-  c #F1B100",
";  c #F0B308",
":  c #E4A613",
">  c #E6A913",
",  c #E8AB15",
"<  c #E6AA1B",
"1  c #E8AD1B",
"2  c #EEB412",
"3  c #EEB41A",
"4  c #F0B617",
"5  c #F0B719",
"6  c #F0B81D",
"7  c #DDA72E",
"8  c #DEAA35",
"9  c #E0A726",
"0  c #E6AA24",
"q  c #E8AD22",
"w  c #E7AD29",
"e  c #E8AE2B",
"r  c #EDB424",
"t  c #EBB32C",
"y  c #EEB92E",
"u  c #F0B924",
"i  c #F1BD2D",
"p  c #E7B635",
"a  c #EAB434",
"s  c #EDBA33",
"d  c #E7B43B",
"f  c #E9B43C",
"g  c #EDB93D",
"h  c #F1BC33",
"j  c #F1BE3E",
"k  c #F2C03C",
"l  c #D5A745",
"z  c #DCAD42",
"x  c #D4AA4C",
"c  c #D8A752",
"v  c #D2AA55",
"b  c #DAAA55",
"n  c #DDAE59",
"m  c #DBB25B",
"M  c #E4B743",
"N  c #EAB643",
"B  c #EDBB43",
"V  c #EAB64B",
"C  c #EDBC4B",
"Z  c #E3B84A",
"A  c #F0BD41",
"S  c #E5B853",
"D  c #EDBC55",
"F  c #E0B25E",
"G  c #E3BE5C",
"H  c #ECBD5B",
"J  c #D2AE64",
"K  c #DFBE68",
"L  c #D6B471",
"P  c #D3B67F",
"I  c #E3B662",
"U  c #E5BA65",
"Y  c #EABE65",
"T  c #E5BD69",
"R  c #E9BE6B",
"E  c #EAC04F",
"W  c #F3C243",
"Q  c #F2C24C",
"!  c #EAC156",
"~  c #EBC15D",
"^  c #F1C254",
"/  c #F1C45B",
"(  c #F4C95D",
")  c #EBC263",
"_  c #ECC26C",
"`  c #F1C663",
"'  c #F4CA64",
"]  c #F1C56D",
"[  c #F4CB6C",
"{  c #EEC273",
"}  c #EFC379",
"|  c #EECA7A",
" . c #E7C674",
".. c #F0C575",
"X. c #F3CB75",
"o. c #F0C67B",
"O. c #F3CD7B",
"+. c #F6D17E",
"@. c #F8D37F",
"#. c #D3B789",
"$. c #D0BB9F",
"%. c #CCBBAA",
"&. c #E7CB82",
"*. c #EECD85",
"=. c #E2C380",
"-. c #F1C780",
";. c #F3CD83",
":. c #F3CD8B",
">. c #EED08D",
",. c #F7D283",
"<. c #F8D484",
"1. c #F6D28A",
"2. c #F9D68B",
"3. c #FAD88E",
"4. c #E2CA97",
"5. c #EFD395",
"6. c #F5D290",
"7. c #FAD991",
"8. c #CBC0BC",
"9. c #D8CCBD",
"0. c #E2CEA7",
"q. c #E5D3AC",
"w. c #F0D9A5",
"e. c #F0DAAA",
"r. c #E4D4B1",
"t. c #F1DFBB",
"y. c #F2E0BD",
"u. c #B4B9DF",
"i. c #B2B7E0",
"p. c #B4BAE3",
"a. c #B3BBEA",
"s. c #BFC3E1",
"d. c #BEC2EA",
"f. c #B6C0F6",
"g. c #CBC1C3",
"h. c #CAC1CA",
"j. c #C4C3DB",
"k. c #CECFDF",
"l. c #C9C3D4",
"z. c #E3D9C8",
"x. c #E0DDDF",
"c. c #F2E2C3",
"v. c #F3E5CC",
"b. c #F3E6D1",
"n. c #F3E8D5",
"m. c #F4EADA",
"M. c #C3C5E3",
"N. c #C8C7E1",
"B. c #C6C7EA",
"V. c #C6C9EC",
"C. c #CED1E1",
"Z. c #CDD2EC",
"A. c #D2D3E2",
"S. c #D7D8E6",
"D. c #DADBEC",
"F. c #C3C7F5",
"G. c #C5C8F5",
"H. c #C3CAFD",
"J. c #CED1F4",
"K. c #CDD3FC",
"L. c #CED8FF",
"P. c #D2D8F5",
"I. c #D1D5F9",
"U. c #D8D9F2",
"Y. c #DFE1F5",
"T. c #DFE8FF",
"R. c #E2E0E3",
"E. c #E1E1EB",
"W. c #F4EDE3",
"Q. c #F5F0EE",
"!. c #E1E3F6",
"~. c #E1E4FB",
"^. c #E1E8FF",
"/. c #F6F2F3",
"(. c #F6F4F9",
"). c None",
/* pixels */
").).).).).).).).).).).).).).).).).).).).).).).).).).+.@.+.+.+.,.,.+.+.+.+.O.).).).).).).).).).).).).).).).).).).).).).).).).).).",
").).).).).).).).).).).).).).).).).).).).).).).,.,.+.@.+.+.+.+.<.<.+.@.@.,.@.+.,.@.).).).).).).).).).).).).).).).).).).).).).).).",
").).).).).).).).).).).).).).).).).).).).@.,.+.,.3.+.+.+.,.,.@.2.<.,.O.O.+.;.+.7.,.@.,.;.).).).).).).).).).).).).).).).).).).).).",
").).).).).).).).).).).).).).).).).).+.+.+.+.+.+.7.<.<.1.O.X.] { _ ] ..o.o.o.O.2...O.+.,.@.@.).).).).).).).).).).).).).).).).).).",
").).).).).).).).).).).).).).).).<.,.+.+.+.,.<.<.X.~ N w > # # + O # # < w f D R R -.R -.X.+.,.,.).).).).).).).).).).).).).).).).",
").).).).).).).).).).).).).).+.+.<.3.O.,.<.+.! e # O X X O O O O + O @ @ + @ + > e D R -.R R 1.,.@.<.).).).).).).).).).).).).).).",
").).).).).).).).).).).).).+.+.,.+.3.3.X.f > O X O O O % % % 2 = 2 = = = = 2 ; = & & 3 C R :.;.R ..O.@.).).).).).).).).).).).).).",
").).).).).).).).).).).).+.+.+.+.<.+.B + O O O O @ % = ; = = = = = = = = = = = = = = ; & 4 D } } R ....O.).).).).).).).).).).).).",
").).).).).).).).).).).+.+.+.+.<.` > O O O O @ = = = = = = = = = = = = = ; = = = = = = = * * t ) -.R R -.;.).).).).).).).).).).).",
").).).).).).).).).).<.,.+.,.<.B O O O O O = = = = = = = = = * u 6 * = = = = = = = = = = = = * = D -.o.R R 1.).).).).).).).).).).",
").).).).).).).).).+.<.3.,.+.t X O O O % = = = = = = = = = * k <.O.y * = 4 = ; = = = = = = = = = & A R R 6.o.R ).).).).).).).).).",
").).).).).).).).+.+.+.<.+.q O O O + = = = = = = = = = = = = [ ,.} ~ = = = = = = = = = = = = = = = & h -.;.R R o.).).).).).).).).",
").).).).).).).+.+.+.,.+.1 X O O % = = = 2 ; ; = = = = = = * A } } s * = = = 2 = = = ; = = = = = = = & e R o.R R ..).).).).).).).",
").).).).).).+.+.+.+.,.e O O O % = = = = = = 2 = = = = = = = * q 1 * = = = = = = 2 ; = = = ; = = = % o o d } R o.R ..).).).).).).",
").).).).).).+.+.+.<.f O O O % = = = = 2 ; 2 ; = = = = = = = = * * * = = = = = = = = = = = = = = % O o O o C -.R ..R ).).).).).).",
").).).).).,.,.+.2./ O O O % = = = = ; = ; = = = = = = = = = * h 9.t - 2 = = = = = ; = 4 = = = % O O O O o o ' o.R o.o.).).).).).",
").).).).).,.3.2.+.> O O % = = = = = = = = = = = = = = = 2 @ s R.L.k.r * 2 = = = = = = = = = @ O O O O O O O 1 O.;.1.o.).).).).).",
").).).).@.+.+.3.N X O O = = = = = = = = = = = = = = ; 2 - s E.^.J.f.N.t - = = = = = = = = @ O O O O O O O O X C :.R R R ).).).).",
").).).).+.,.,.[ O O O = = = = = = = = = ; = = = = = = * B !.^.!.I.F.H.V.p - = = = = = = @ O O O O O O O O O O # X.......).).).).",
").).).,.+.+.<.s X O @ = = = = = = = = = 2 = = ; = = - E !.Y.!.~.I.G.G.G.V.d * = = = = % O O O O O O O O O O O O A 1.R ..o.).).).",
").).).,.+.,.X.# O O = = % ; ; 4 = = = = = = = = = * E Y.~.!.~.~.I.F.G.G.G.G.M * = = @ O O O O O O O O O O O O O , @.o.R R ).).).",
").).+.+.+.<.B O O % = = 4 = ; ; ; = = = = ; = 2 @ H !.~.!.~.~.~.I.F.G.G.G.H.G.Z - % O O O O O O O O O O + O O O o H 2.R o.R ).).",
").).,.+.+.,.< O O ; = = ; ; 2 % = = = = = = = * ) T.^.^.~.~.Y.^.I.F.G.H.G.G.G.H.m O O O O O O O O O O O O O O O o t <.X.o.R ).).",
").).<.7.7.] O O % ; % = 4 % ; ; = = = = = = 2 -  .U.S.D.U.Y.Y.T.I.G.G.F.F.d.d.f.J O O O O O O O O O O O O O @ O X # @.6.6.O.).).",
").).+.+.2.C X O = = = = ; 2 ^ / 2 = = = = = = = @ T Z.k.k.k.C.S.V.a.p.p.u.p.a.v + O O O O O O # ` C O O O O O O O O / 2...R ).).",
").+.+.+.,.t X O = * = = ; ' 1...3 = = ; = = = = 4 - K Z.C.k.C.C.s.p.u.u.p.a.v + O O O O O O O < } 2.D O O O X O O X B 2.X.R o.).",
").+.+.,.+.< O @ 3 Q 5 * j <.....3 = = = = = = = * = * U Z.Z.k.A.M.i.p.p.a.v + O O O O O O O O < { X.<.r X , C # O X t <.+.R ..).",
").+.+.,...# O @ y *.[ = ' +...D ; 2 ; = = = = 2 B * * * ~ Z.C.k.s.u.p.a.c O O # z O O O O O O + Y { 1.^ + O.-.: O O , ,.,.....).",
").@.+.,.` O O = 2 Y ;.u k ;...r @ ; = = % ; 2 - &.q.2 * * m Z.k.j.i.p.x O X 9 h.m X O O O o X X 0 ..;.t t 6.D O O X $ @.,...R ).",
").+.+.+.) O % * - r g 4 r y r j Q h = ; ; 4 ; % = R.R.! - - G Z.d.a.x o O L H.8.X O O O O # a A a 1 w : $ f X o O + + X.,.X...).",
").,.,.1.H O + h W 3 @ j o.2 ( ;.;...4 ; = = ; 2 * ~ T.T.q.r & ! s.l o 8 h.H.H.8 + O O O X > -.1.<.C > -.w X , A w O # [ 2.;.R ).",
").,.<.1.H O @ g :.,.u ~ ] ; D ..H r ; ; = = = = = * z.T.^.R.) @ # O #.G.G.H.$.+ O O O O O O q Y R V O ..V e 1.:.e X + X.2.2.O.).",
").+.@.O.H O = * a D u ] C - % 3 * * = = = = = = = * C T.!.~.~.0.z h.H.G.G.G.9 O O O O O O O O O # X X H Y 1 D 0 + O + X.,.+.{ ).",
").+.,.O.) O @ 2 6 4 4 o.B ; W ' ! 2 = = = = = = = = * r.~.!.~.~.K.H.G.G.H.#.+ O O O O O O O $ ! ( g X V ..X $ > + X # O.,.+.{ ).",
").O.,.O.) # @ s ;.O.i ..j 5 ;.o.C ; = = = = = = = = * s ~.!.~.~.J.F.F.H.M.: O O O O O + O O O D ;.o.+ V ] w <.O.w X , +.+.,.R ).",
").X.,.| _ < @ = a A 4 X.D % y r 5 4 = = = = = = = = 2 @ 4.~.!.~.K.F.F.H.L o O O O O @ O O O # $ 0 1 O _ ` # N 0 O O t <.+.+.R ).",
").} @.+.{ w @ = ; 5 ; / o.2 = ( ;.y * = = = = = = = % O 9 E.T.!.J.F.H.l.# O O O O O O O O O a ;.^ X , ;.B O > O O O g <.@.O.R ).",
")._ @.X.{ N @ = / 6.' i 1.j 4 ..g = = = = = = = = @ X O X  .T.!.J.F.H.m X O O O O O O O O O O N ] + V 1.w ] :.C O O / <.+.X.U ).",
").U ,.3.:.H % ; 4 A s & ' ;.u @ i [ 3 * = = = = @ O O O O : S.~.J.H.g.O O O O O O O O O O < ] , X w 1.Q X a a # X # X.7.3.O.).).",
").).+.<.} R , % ; ; ; r u +.O.u A D = = = = = @ O O O O O O _ ^.J.H.z O O O O O O O O O O O H f 0 1.[ 1 1 O X O X r 1.@.<...).).",
").)._ ,.]  .f @ = * B ;.B 3 X.1.^ 5 = = = = @ O O O O O O O O z.K.%.O O O O O O O O O O O O : D 3.' # C ;.a O O X D <.+.+.T ).).",
").).U ,.O._ H = = = = 3 = 5 Q ( 3.Q * = = @ O O O O O O O O O S K.7 O O O O O O O O @ O O O ^ 3.! N # O # O O O $ O.@.@.+.F ).).",
").).b O.,.T { y * = = = = ~ ^ * r 2 = = @ O O O O O O O O O O # J O O O O O O O O O O O O O $ > O H V O O O O O g <.@.,...).).).",
").).).R ,._ _ H = = = = = = * = ; = = @ O O O O O O O O O O O O + O O O O O O O O O O O O O O O O O O O O O O + X.@.+.@.U ).).).",
").).).m +.X.U } s * = = = = = = = = @ O O O + : : $ O O O O O @ $ O X X O O O # > # O O O O O O O O O O O O X C <.+.+.O.b ).).).",
").).).)._ +.O.*.) 2 = = = = = = = @ O O O O w.b.n.b.5.: O X ! v.v.b.e.t O X S v.v.m.y.M O O O O O O O O O X > +.3.3.<.U ).).).).",
").).).).b ,.O.T _ V * = = = = = % O O O O O c.b.N { /.>.O X  .Q.O.) m.v.: X H /.| D v.m.< O O O O O O O O O ` <.+.<.O.b ).).).).",
").).).).).U O.R _  .p * = = = @ O O O O O O c.y.X w W.*.X X _ Q.d   *.Q.a X H /.Z   { Q.f X O O O O O O O C <.+.+.@.I ).).).).).",
").).).).).b ..X.T R _ r * 2 @ O O O O O O @ t.m.t.m.y.: O X _ Q.H t v.n.: X H /.] f v.m., O O O O O O O t <.+.+.,._ c ).).).).).",
").).).).).).n O._ R _ Y 2 @ O O O O O O O O c.v._ 5.m.| O X _ W.n.W.v.Z O X ! W.n.m.c.V X O O O O O X q +.+.+.,.O.b ).).).).).).",
").).).).).).c I X.T R { _ # O O O O O O O O c.y.X X c.n.$ X _ Q.~ 1 # X O X ! /.) > # X O O O O O X 1 ,.,.+.+.+.F b ).).).).).).",
").).).).).).).c U { _ ;. .U < O O O O O O O c.v.N  .Q.e.O O _ /.d X O O # X ! (.Z X O O O O O O O t +.<.3.@.,.I c ).).).).).).).",
").).).).).).).).c U O.} Y { _ t O O O O O O e.n.n.b.5.1 O X ) W.d X O O O X S m.B O O O O O O O g 1.+.+.<.2.U c ).).).).).).).).",
").).).).).).).).).b I R R R R { C $ X O O O # > > O X O O O O : O O O O O O + $ O O O O O O : / <.+.+.@.@.U b ).).).).).).).).).",
").).).).).).).).).).b I  ._ R R { ] a O X O O O O O O O O O O O O O O O O O O O + + O O O g O.<.+.+.@.+.I b ).).).).).).).).).).",
").).).).).).).).).).).v n R R _ U *.,.' t O O O O O O + O O O O O O O O O O O O O X O p [ 2.2.+.+.,.O.F b ).).).).).).).).).).).",
").).).).).).).).).).).).b n U _ { ,.U | ,.[ f , O X X O O O O O O O O O X O X O 1 B X.<.,.+.3.<.@.{ b b ).).).).).).).).).).).).",
").).).).).).).).).).).).).b b F } { _ T _ O.<.,.' C t 1 # O O O O O @ # < t E ] ,.<.@.+.+.@.<.+.I b b ).).).).).).).).).).).).).",
").).).).).).).).).).).).).).b b b I _ _ _ R _ X.7.3.<.@.O.[ ' ` ' ' X.O.,.<.2.7.@.+.+.,.@.+.R b b b ).).).).).).).).).).).).).).",
").).).).).).).).).).).).).).).).b b n I T _ R { 1._ O.@.,.,.<.3.2.,.,.+.+.+.@.7.,.,.+.X.U b b b ).).).).).).).).).).).).).).).).",
").).).).).).).).).).).).).).).).).).b b n m U { } _ _ _ { X.X.<.1.+.+.+.+.+.O.+.} Y m b b b ).).).).).).).).).).).).).).).).).).",
").).).).).).).).).).).).).).).).).).).).b b b b m F U U T _ T  ._ _ _ _ R U F n b b b b ).).).).).).).).).).).).).).).).).).).).",
").).).).).).).).).).).).).).).).).).).).).).b b b b b b b n n n n n n b b b b b b ).).).).).).).).).).).).).).).).).).).).).).).",
").).).).).).).).).).).).).).).).).).).).).).).).).).b b b b b b b b b b b b ).).).).).).).).).).).).).).).).).).).).).).).).).)."
};
